<svg width="25" height="23" viewBox="0 0 25 23" fill="none" xmlns="http://www.w3.org/2000/svg">
<g clip-path="url(#clip0_18_29)">
<path d="M25 11.5698C25 5.21854 19.4036 0.0698242 12.5 0.0698242C5.59644 0.0698242 0 5.21854 0 11.5698C0 17.3098 4.57109 22.0674 10.5469 22.9301V14.894H7.37305V11.5698H10.5469V9.03623C10.5469 6.15404 12.413 4.56201 15.2683 4.56201C16.6359 4.56201 18.0664 4.78662 18.0664 4.78662V7.6167H16.4902C14.9374 7.6167 14.4531 8.50314 14.4531 9.41259V11.5698H17.9199L17.3657 14.894H14.4531V22.9301C20.429 22.0674 25 17.3098 25 11.5698Z" fill="#C9C9C9"/>
</g>
<defs>
<clipPath id="clip0_18_29">
<rect width="25" height="23" fill="white"/>
</clipPath>
</defs>
</svg>
