<svg width="99" height="95" viewBox="0 0 99 95" fill="none" xmlns="http://www.w3.org/2000/svg">
<path d="M1.92929 31.1956H22.8498V94.1521H1.92929V31.1956ZM12.5296 0.847778C5.36936 0.847778 0.691406 5.54851 0.691406 11.7184C0.691406 17.7614 5.23246 22.5987 12.2558 22.5987H12.3892C19.6863 22.5987 24.2306 17.7611 24.2306 11.7184C24.0937 5.54851 19.6865 0.847778 12.5296 0.847778ZM74.2155 29.7167C63.1106 29.7167 58.1356 35.8247 55.3603 40.1083V31.1956H34.4335C34.7105 37.1016 34.4335 94.1521 34.4335 94.1521H55.3603V58.9928C55.3603 57.1097 55.4972 55.2336 56.0478 53.8846C57.5629 50.1254 61.006 46.2326 66.7815 46.2326C74.3589 46.2326 77.385 52.0085 77.385 60.4679V94.1519H98.3086V58.0515C98.3086 38.7142 87.9886 29.7167 74.2155 29.7167Z" fill="#C9C9C9"/>
</svg>
