<svg width="102" height="96" viewBox="0 0 102 96" fill="none" xmlns="http://www.w3.org/2000/svg">
<path d="M0.5 74.4C0.5 73.9 0.5 73.4 0.5 72.8C1.1 72.1 1.8 71.4 2.9 71.2C11.1 69.6 16.7 64.3 20.8 57.4C24.3 51.6 23.7 50.3 17.3 48C16.9 47.9 16.6 47.8 16.2 47.6C14.8 47 13.4 46.4 12.3 45.4C9.4 42.9 11.1 39.3 14.5 38.5C17 37.9 19.2 39.5 21.6 39.8C23.2 40 23.9 39.5 23.7 37.7C23.2 33.3 23.2 28.8 23.4 24.4C23.8 15.9 28 9.49999 35 5.29999C45.3 -0.800011 56.1 -0.900009 66.5 5.19999C72.9 8.99999 77.1 14.8 78 22.5C78.6 27.5 78.4 32.6 78 37.6C77.8 39.8 78.3 40.2 80.4 39.7C83.1 39.1 85.3 37.7 88.1 38.9C89.6 39.6 90.9 41 90.8 42.6C90.8 43.7 90.1 44.7 89.3 45.5C88 46.6 86.3 47.2 84.8 47.9C83.6 48.4 82.3 48.8 81.2 49.3C78.8 50.4 78.1 51.9 79.2 54.4C83.1 62.7 88.9 69.1 98.3 71.3C99.4 71.6 100.4 72 101.1 73C101.1 73.5 101.1 74 101.1 74.6C100.2 76.4 98.6 77.4 96.8 78.1C95 78.8 93.1 79.6 91.2 79.7C88.5 79.9 87.1 81.1 86.6 83.9C86.2 86.6 85.4 87 82.7 86.8C82.1 86.7 81.4 86.6 80.8 86.5C75.4 85.5 70.4 86.1 66 89.7C65.1 90.4 64.2 91 63.2 91.6C55.7 96.5 48 97 40.1 92.5C38 91.2 35.9 89.8 33.8 88.4C32.1 87.3 30.2 86.6 28.2 86.3C24.9 85.8 21.8 86.5 18.6 86.9C17 87.1 15.4 86.6 15.3 84.9C15.1 80.8 12.6 79.8 9.2 79.5C7.6 79.3 6 78.7 4.5 78.1C2.8 77.1 1.3 76.1 0.5 74.4Z" fill="#C9C9C9"/>
</svg>
