<svg width="25" height="27" viewBox="0 0 25 27" fill="none" xmlns="http://www.w3.org/2000/svg">
<path d="M12.4927 26C10.1136 25.9984 9.40516 24.9008 7.83925 24.1365C6.4408 23.4539 4.43938 24.4845 4.0242 22.6575C3.97043 21.7133 2.46208 21.8653 1.61594 21.221C0.844015 20.6332 0.766874 19.6911 1.55987 19.3203C3.35491 18.4809 5.24182 16.6421 5.69846 14.6703C5.98329 13.4403 2.41708 13.062 3.15972 10.7429C3.5979 9.37448 5.17245 9.85635 6.0291 10.1629C5.45833 5.29924 7.60925 1 12.5 1C17.3907 1 19.5417 5.29924 18.9709 10.1629C19.8275 9.85635 21.402 9.37448 21.8403 10.7429C22.5829 13.062 19.0166 13.4403 19.3015 14.6703C19.7582 16.6421 21.645 18.4809 23.4401 19.3203C24.2331 19.6912 24.156 20.6332 23.3841 21.221C22.5379 21.8653 21.0295 21.7133 20.9758 22.6575C20.5606 24.4845 18.5592 23.4539 17.1608 24.1365C15.5948 24.9008 14.8864 25.9984 12.5073 26C12.5037 26 12.4963 26 12.4927 26Z" stroke="#C9C9C9" stroke-width="2" stroke-linecap="round" stroke-linejoin="round"/>
</svg>
