<svg width="25" height="21" viewBox="0 0 25 21" fill="none" xmlns="http://www.w3.org/2000/svg">
<path d="M19.57 19.3986C19.2807 19.9903 18.6595 20.1779 18.185 19.8148C14.3921 16.9258 9.61734 16.2715 3.99419 17.8735C3.4523 18.0275 2.91222 17.6041 2.78877 16.9281C2.66472 16.2522 3.00291 15.5787 3.54607 15.4247C9.69969 13.6716 14.9781 14.4264 19.2363 17.6714C19.7108 18.0347 19.8613 18.8068 19.57 19.3986ZM21.5472 13.9136C21.1827 14.6526 20.4072 14.8859 19.815 14.4313C15.4727 11.1031 8.85365 10.1392 3.71761 12.0833C3.05152 12.3342 2.34802 11.8661 2.14582 11.0369C1.94521 10.2063 2.32082 9.33074 2.9857 9.07814C8.85245 6.85833 16.146 7.93357 21.1325 11.7547C21.7247 12.2093 21.9118 13.1761 21.5472 13.9136ZM21.717 8.2021C16.5105 4.34592 7.92053 3.99129 2.94964 5.87267C2.15138 6.17455 1.30722 5.61267 1.06536 4.61726C0.823493 3.62138 1.27371 2.56947 2.07249 2.26684C7.77875 0.106719 17.2648 0.524034 23.2591 4.96149C23.9786 5.49283 24.2139 6.64921 23.7877 7.54333C23.3633 8.43868 22.4335 8.73381 21.7178 8.20219L21.717 8.2021Z" stroke="#C9C9C9" stroke-linecap="round" stroke-linejoin="round"/>
</svg>
