<svg width="137" height="138" viewBox="0 0 137 138" fill="none" xmlns="http://www.w3.org/2000/svg">
<path d="M136.633 69.2734C136.633 70.3125 136.605 71.3789 136.633 72.418C136.879 80.9492 134.582 88.9609 131.246 96.6719C126.133 108.457 118.176 117.973 107.703 125.301C99.7461 130.879 90.9141 134.516 81.3438 136.348C75.3828 137.469 69.3946 137.688 63.4063 137.305C54.0821 136.676 45.25 134.133 36.9649 129.73C26.3282 124.098 17.7149 116.223 11.1797 106.105C6.06643 98.1758 2.81253 89.5078 1.25394 80.1836C0.351591 74.7969 0.160185 69.3828 0.570341 63.9961C1.6094 50.707 6.09378 38.6484 14.2149 28.0664C24.2227 15.0234 37.1836 6.32813 53.2617 2.7461C74.5078 -1.98437 93.9219 2.39063 111.148 15.7617C121.512 23.8008 128.785 34.1914 133.16 46.5508C135.758 53.8789 137.262 61.4258 136.633 69.2734ZM58.4571 37.0352C54.8477 37.0352 51.2657 37.2813 47.6836 37.5273C40.875 38.0195 34.1485 39.1133 27.5586 40.8906C26.1641 41.2734 24.7422 41.6836 23.6211 42.6953C21.4063 44.7188 20.8594 47.9453 22.2813 50.543C23.7305 53.1953 26.711 54.4531 29.7461 53.5781C39.0157 50.8711 48.5313 49.9414 58.1563 49.832C60.4258 49.8047 62.6953 49.9414 64.9649 50.0234C69.3672 50.1602 73.7696 50.5703 78.1172 51.2813C89.0547 53.0313 99.6094 55.9297 109.262 61.5625C112.352 63.3672 116.207 62.1914 117.902 59.1563C119.625 56.0664 118.586 52.2383 115.469 50.4063C110.93 47.7539 106.172 45.6211 101.223 43.8711C87.3594 39.0039 73.0586 37.1445 58.4571 37.0352ZM109.07 78.1328C109.207 75.7266 107.922 74.2227 105.98 73.1016C99.7461 69.4375 93.1563 66.6758 86.211 64.6524C77.7344 62.1914 69.0938 60.9336 60.2891 60.6055C55.9688 60.4414 51.6485 60.6602 47.3282 61.0703C41.4766 61.6172 35.7344 62.7109 30.1016 64.4063C27.0117 65.3359 25.5625 68.207 26.3555 71.1328C26.9844 73.4297 29.9922 75.6719 33.2188 74.6328C41.1758 72.0899 49.4063 71.2969 57.6914 71.2695C62.0391 71.2695 66.3867 71.5703 70.7071 72.2539C76.3399 73.1289 81.8633 74.3594 87.25 76.2188C92.0899 77.8867 96.6836 80.0195 101.113 82.6172C104.723 84.7773 109.043 82.3164 109.07 78.1328ZM59.1407 82.918C54.3282 82.9453 50.5547 83.0547 46.7813 83.4922C41.8594 84.0664 36.9649 84.8594 32.1524 86.0078C29.8555 86.5547 28.543 88.8242 29.0625 91.0117C29.6641 93.4727 31.7969 94.8125 34.2032 94.293C39.125 93.1992 44.0742 92.3516 49.1055 91.8867C55.75 91.2578 62.3399 91.2852 68.9571 92.1602C77.9258 93.3633 86.293 96.1524 94.0313 100.828C96.2188 102.168 98.7617 101.539 99.9922 99.4609C101.223 97.3828 100.594 94.8945 98.461 93.5274C95.6446 91.75 92.6641 90.2461 89.6016 88.9609C79.5391 84.668 69.0117 82.7539 59.1407 82.918Z" fill="#C9C9C9"/>
</svg>
