<svg width="1280" height="832" viewBox="0 0 1280 832" fill="none" xmlns="http://www.w3.org/2000/svg">
<g clip-path="url(#clip0_67_12)">
<rect width="1280" height="832" fill="#0D111B"/>
<g filter="url(#filter0_f_67_12)">
<path fill-rule="evenodd" clip-rule="evenodd" d="M135.772 155.886C182.647 169.061 170.846 29.4586 219.299 30.726C259.446 31.7761 182.717 128.54 212.035 157.881C245.129 191.002 313.68 124.696 346.546 158.076C370.131 182.029 311.008 216.408 302.796 250.059C296.054 277.685 306.762 306.446 303.423 334.772C299.025 372.082 315.165 443.909 279.992 443.507C225.612 442.885 209 320.009 156.01 333.086C101.799 346.463 131.101 460.289 83.9607 491.881C54.601 511.557 22.6353 460.046 -8.19152 443.128C-43.4447 423.781 -117.486 426.254 -112.095 384.283C-103.663 318.644 -7.01006 305.544 17.31 244.603C27.8937 218.082 -18.6466 201.225 -28.2957 174.3C-42.5906 134.413 -64.445 90.9088 -52.3614 50.194C-41.4709 13.499 -1.77919 -40.3602 30.0977 -22.452C89.0091 10.644 71.4087 137.796 135.772 155.886Z" fill="#3D0714" fill-opacity="0.89"/>
<path fill-rule="evenodd" clip-rule="evenodd" d="M-147.368 722.079C-178.766 689.102 -143.607 628.98 -159.114 584.941C-174.039 542.556 -225.913 523.224 -233.106 478.592C-241.994 423.45 -252.381 333.773 -202.103 318.225C-141.143 299.374 -98.0416 386.942 -42.4343 419.629C-23.6518 430.67 -6.13208 444.341 15.2469 445.988C73.5897 450.484 150.961 387.37 186.24 437.251C217.003 480.746 109.164 515.304 102.509 569.368C94.135 637.405 187.499 712.476 145.927 764.764C107.698 812.847 35.1994 736.105 -23.2897 727.592C-65.3354 721.473 -117.098 753.87 -147.368 722.079Z" fill="#4D0027" fill-opacity="0.76"/>
<path fill-rule="evenodd" clip-rule="evenodd" d="M282.871 578.424C253.85 621.599 213.302 645.921 172.92 663.693C131.189 682.059 80.4915 707.654 54.5021 678.927C29.1361 650.889 51.5278 589.521 61.0285 540.015C67.1939 507.888 84.7598 480.42 98.5854 449.22C118.799 403.604 120.596 335.788 159.217 318.434C197.543 301.212 203.181 370.395 232.255 389.156C263.127 409.076 319.516 387.446 330.641 429.045C342.306 472.666 313.558 532.77 282.871 578.424Z" fill="#2F0130" fill-opacity="0.61"/>
</g>
<g filter="url(#filter1_f_67_12)">
<path fill-rule="evenodd" clip-rule="evenodd" d="M591.146 689.886C638.021 703.061 626.22 563.459 674.673 564.726C714.82 565.776 638.091 662.54 667.409 691.881C700.503 725.002 769.054 658.696 801.92 692.076C825.505 716.029 766.382 750.408 758.17 784.059C751.428 811.685 762.136 840.446 758.797 868.772C754.399 906.082 770.539 977.909 735.366 977.507C680.986 976.885 664.375 854.009 611.385 867.086C557.173 880.463 586.475 994.289 539.335 1025.88C509.975 1045.56 478.009 994.046 447.183 977.128C411.929 957.781 337.888 960.254 343.279 918.283C351.711 852.644 448.364 839.544 472.684 778.603C483.268 752.082 436.727 735.225 427.078 708.3C412.783 668.413 390.929 624.909 403.013 584.194C413.903 547.499 453.595 493.64 485.472 511.548C544.383 544.644 526.783 671.796 591.146 689.886Z" fill="#3D0714"/>
<path fill-rule="evenodd" clip-rule="evenodd" d="M312.632 1253.08C281.234 1220.1 316.393 1159.98 300.886 1115.94C285.961 1073.56 234.087 1054.22 226.894 1009.59C218.006 954.45 207.619 864.773 257.897 849.225C318.857 830.374 361.958 917.942 417.566 950.629C436.348 961.67 453.868 975.341 475.247 976.988C533.59 981.484 610.961 918.37 646.24 968.251C677.003 1011.75 569.164 1046.3 562.509 1100.37C554.135 1168.4 647.499 1243.48 605.927 1295.76C567.698 1343.85 495.199 1267.1 436.71 1258.59C394.665 1252.47 342.902 1284.87 312.632 1253.08Z" fill="#4D0027"/>
<path fill-rule="evenodd" clip-rule="evenodd" d="M742.871 1109.42C713.85 1152.6 673.302 1176.92 632.92 1194.69C591.189 1213.06 540.492 1238.65 514.502 1209.93C489.136 1181.89 511.528 1120.52 521.029 1071.01C527.194 1038.89 544.76 1011.42 558.585 980.22C578.799 934.604 580.596 866.788 619.217 849.434C657.543 832.212 663.181 901.395 692.255 920.156C723.127 940.076 779.516 918.446 790.641 960.045C802.306 1003.67 773.558 1063.77 742.871 1109.42Z" fill="#2F0130" fill-opacity="0.79"/>
</g>
<g filter="url(#filter2_f_67_12)">
<path fill-rule="evenodd" clip-rule="evenodd" d="M776.772 -181.114C823.647 -167.939 811.846 -307.541 860.299 -306.274C900.446 -305.224 823.717 -208.46 853.035 -179.119C886.129 -145.998 954.68 -212.304 987.546 -178.924C1011.13 -154.971 952.008 -120.592 943.796 -86.9406C937.054 -59.3151 947.762 -30.5543 944.423 -2.228C940.025 35.0821 956.165 106.909 920.992 106.507C866.612 105.885 850 -16.9906 797.01 -3.91428C742.799 9.46341 772.101 123.289 724.961 154.881C695.601 174.557 663.635 123.046 632.808 106.128C597.555 86.7807 523.514 89.2538 528.905 47.2833C537.337 -18.3564 633.99 -31.4562 658.31 -92.3974C668.894 -118.918 622.353 -135.775 612.704 -162.7C598.409 -202.587 576.555 -246.091 588.639 -286.806C599.529 -323.501 639.221 -377.36 671.098 -359.452C730.009 -326.356 712.409 -199.204 776.772 -181.114Z" fill="#3D0714"/>
<path fill-rule="evenodd" clip-rule="evenodd" d="M493.632 385.079C462.234 352.102 497.393 291.98 481.886 247.941C466.961 205.556 415.087 186.224 407.894 141.592C399.006 86.4501 388.619 -3.22677 438.897 -18.7747C499.857 -37.6257 542.958 49.9421 598.566 82.6292C617.348 93.67 634.868 107.341 656.247 108.988C714.59 113.484 791.961 50.3697 827.24 100.251C858.003 143.746 750.164 178.304 743.509 232.368C735.135 300.405 828.499 375.476 786.927 427.764C748.698 475.847 676.199 399.105 617.71 390.592C575.665 384.473 523.902 416.87 493.632 385.079Z" fill="#4D0027"/>
<path fill-rule="evenodd" clip-rule="evenodd" d="M923.871 241.424C894.85 284.599 854.302 308.921 813.92 326.693C772.189 345.058 721.492 370.654 695.502 341.927C670.136 313.889 692.528 252.521 702.029 203.015C708.194 170.888 725.76 143.42 739.585 112.22C759.799 66.6044 761.596 -1.21205 800.217 -18.5664C838.543 -35.7881 844.181 33.3953 873.255 52.1557C904.127 72.0757 960.516 50.4464 971.641 92.0446C983.306 135.666 954.558 195.77 923.871 241.424Z" fill="#2F0130" fill-opacity="0.79"/>
<g filter="url(#filter3_f_67_12)">
<path fill-rule="evenodd" clip-rule="evenodd" d="M1210.77 228.886C1257.65 242.061 1245.85 102.459 1294.3 103.726C1334.45 104.776 1257.72 201.54 1287.03 230.881C1320.13 264.002 1388.68 197.696 1421.55 231.076C1445.13 255.029 1386.01 289.408 1377.8 323.059C1371.05 350.685 1381.76 379.446 1378.42 407.772C1374.03 445.082 1390.17 516.909 1354.99 516.507C1300.61 515.885 1284 393.009 1231.01 406.086C1176.8 419.463 1206.1 533.289 1158.96 564.881C1129.6 584.557 1097.64 533.046 1066.81 516.128C1031.56 496.781 957.514 499.254 962.905 457.283C971.337 391.644 1067.99 378.544 1092.31 317.603C1102.89 291.082 1056.35 274.225 1046.7 247.3C1032.41 207.413 1010.55 163.909 1022.64 123.194C1033.53 86.499 1073.22 32.6398 1105.1 50.548C1164.01 83.644 1146.41 210.796 1210.77 228.886Z" fill="#3D0714" fill-opacity="0.44"/>
<path fill-rule="evenodd" clip-rule="evenodd" d="M927.632 795.079C896.234 762.102 931.393 701.98 915.886 657.941C900.961 615.556 849.087 596.224 841.894 551.592C833.006 496.45 822.619 406.773 872.897 391.225C933.857 372.374 976.958 459.942 1032.57 492.629C1051.35 503.67 1068.87 517.341 1090.25 518.988C1148.59 523.484 1225.96 460.37 1261.24 510.251C1292 553.746 1184.16 588.304 1177.51 642.368C1169.13 710.405 1262.5 785.476 1220.93 837.764C1182.7 885.847 1110.2 809.105 1051.71 800.592C1009.66 794.473 957.902 826.87 927.632 795.079Z" fill="#4D0027"/>
<path fill-rule="evenodd" clip-rule="evenodd" d="M1357.87 651.424C1328.85 694.599 1288.3 718.921 1247.92 736.693C1206.19 755.058 1155.49 780.654 1129.5 751.927C1104.14 723.889 1126.53 662.521 1136.03 613.015C1142.19 580.888 1159.76 553.42 1173.59 522.22C1193.8 476.604 1195.6 408.788 1234.22 391.434C1272.54 374.212 1278.18 443.395 1307.26 462.156C1338.13 482.076 1394.52 460.446 1405.64 502.045C1417.31 545.666 1388.56 605.77 1357.87 651.424Z" fill="#2F0130" fill-opacity="0.79"/>
</g>
</g>
</g>
<defs>
<filter id="filter0_f_67_12" x="-377.513" y="-163" width="866.579" height="1080.49" filterUnits="userSpaceOnUse" color-interpolation-filters="sRGB">
<feFlood flood-opacity="0" result="BackgroundImageFix"/>
<feBlend mode="normal" in="SourceGraphic" in2="BackgroundImageFix" result="shape"/>
<feGaussianBlur stdDeviation="68.5" result="effect1_foregroundBlur_67_12"/>
</filter>
<filter id="filter1_f_67_12" x="82.4868" y="371" width="861.953" height="1077.49" filterUnits="userSpaceOnUse" color-interpolation-filters="sRGB">
<feFlood flood-opacity="0" result="BackgroundImageFix"/>
<feBlend mode="normal" in="SourceGraphic" in2="BackgroundImageFix" result="shape"/>
<feGaussianBlur stdDeviation="68.5" result="effect1_foregroundBlur_67_12"/>
</filter>
<filter id="filter2_f_67_12" x="263.487" y="-500" width="1300.58" height="1490.49" filterUnits="userSpaceOnUse" color-interpolation-filters="sRGB">
<feFlood flood-opacity="0" result="BackgroundImageFix"/>
<feBlend mode="normal" in="SourceGraphic" in2="BackgroundImageFix" result="shape"/>
<feGaussianBlur stdDeviation="68.5" result="effect1_foregroundBlur_67_12"/>
</filter>
<filter id="filter3_f_67_12" x="697.487" y="-90" width="866.579" height="1080.49" filterUnits="userSpaceOnUse" color-interpolation-filters="sRGB">
<feFlood flood-opacity="0" result="BackgroundImageFix"/>
<feBlend mode="normal" in="SourceGraphic" in2="BackgroundImageFix" result="shape"/>
<feGaussianBlur stdDeviation="68.5" result="effect1_foregroundBlur_67_12"/>
</filter>
<clipPath id="clip0_67_12">
<rect width="1280" height="832" fill="white"/>
</clipPath>
</defs>
</svg>
