<svg width="26" height="26" viewBox="0 0 26 26" fill="none" xmlns="http://www.w3.org/2000/svg">
<path d="M13 0C9.55219 0 6.24558 1.36964 3.80761 3.80761C1.36964 6.24558 0 9.55219 0 13C0 16.4478 1.36964 19.7544 3.80761 22.1924C6.24558 24.6304 9.55219 26 13 26C13.431 26 13.8443 25.8288 14.149 25.524C14.4538 25.2193 14.625 24.806 14.625 24.375C14.625 23.944 14.4538 23.5307 14.149 23.226C13.8443 22.9212 13.431 22.75 13 22.75C11.0716 22.75 9.18657 22.1782 7.58319 21.1068C5.97981 20.0355 4.73013 18.5127 3.99217 16.7312C3.25422 14.9496 3.06114 12.9892 3.43734 11.0979C3.81355 9.20656 4.74215 7.46927 6.10571 6.10571C7.46927 4.74215 9.20655 3.81355 11.0979 3.43734C12.9892 3.06114 14.9496 3.25422 16.7312 3.99217C18.5127 4.73013 20.0355 5.97981 21.1068 7.58319C22.1782 9.18657 22.75 11.0716 22.75 13V17.875C22.75 18.306 22.5788 18.7193 22.274 19.024C21.9693 19.3288 21.556 19.5 21.125 19.5C20.694 19.5 20.2807 19.3288 19.976 19.024C19.6712 18.7193 19.5 18.306 19.5 17.875V13C19.5 11.7144 19.1188 10.4577 18.4046 9.38879C17.6903 8.31987 16.6752 7.48675 15.4874 6.99478C14.2997 6.50281 12.9928 6.37409 11.7319 6.6249C10.471 6.8757 9.31285 7.49477 8.40381 8.40381C7.49476 9.31285 6.8757 10.471 6.6249 11.7319C6.37409 12.9928 6.50281 14.2997 6.99478 15.4874C7.48675 16.6752 8.31987 17.6903 9.38879 18.4046C10.4577 19.1188 11.7144 19.5 13 19.5C14.1715 19.4943 15.3192 19.1685 16.319 18.558C16.4893 19.7788 17.1167 20.8895 18.0744 21.6655C19.0322 22.4414 20.2489 22.8248 21.4785 22.738C22.7081 22.6513 23.8589 22.1009 24.6983 21.1982C25.5376 20.2954 26.0029 19.1077 26 17.875V13C25.9966 9.55323 24.6259 6.2486 22.1886 3.81137C19.7514 1.37413 16.4468 0.00339865 13 0ZM13 16.25C12.3572 16.25 11.7289 16.0594 11.1944 15.7023C10.6599 15.3452 10.2434 14.8376 9.99739 14.2437C9.75141 13.6499 9.68705 12.9964 9.81245 12.366C9.93785 11.7355 10.2474 11.1564 10.7019 10.7019C11.1564 10.2474 11.7355 9.93785 12.366 9.81245C12.9964 9.68705 13.6499 9.75141 14.2437 9.99739C14.8376 10.2434 15.3452 10.6599 15.7023 11.1944C16.0594 11.7289 16.25 12.3572 16.25 13C16.2494 13.8618 15.9068 14.6881 15.2975 15.2975C14.6881 15.9068 13.8618 16.2494 13 16.25Z" fill="#C9C9C9" fill-opacity="0.99"/>
</svg>
