<svg width="294" height="289" viewBox="0 0 294 289" fill="none" xmlns="http://www.w3.org/2000/svg">
<path d="M147 0C107.039 0 102.058 0.18968 86.4192 0.840011C70.7158 1.59873 60.0938 3.99231 50.7213 7.56913C40.9121 11.2094 32.0285 16.9088 24.6899 24.27C17.1804 31.467 11.3792 40.2043 7.70009 49.8587C4.06138 59.0718 1.62639 69.5132 0.854544 84.9495C0.147018 100.332 0 105.218 0 144.5C0 183.782 0.192962 188.677 0.854544 204.05C1.62639 219.442 4.06138 229.928 7.70009 239.141C11.4033 248.784 17.2013 257.516 24.6899 264.73C32.0114 272.112 40.8999 277.814 50.7213 281.431C60.0938 284.963 70.7618 287.401 86.4192 288.16C102.068 288.855 107.039 289 147 289C186.961 289 191.942 288.81 207.581 288.16C223.238 287.401 233.906 284.953 243.279 281.431C253.088 277.791 261.971 272.091 269.31 264.73C276.829 257.541 282.632 248.801 286.3 239.141C289.893 229.928 292.374 219.442 293.145 204.05C293.853 188.668 294 183.782 294 144.5C294 105.218 293.807 100.323 293.145 84.9495C292.374 69.5583 289.883 59.0176 286.3 49.8587C282.597 40.2163 276.799 31.4838 269.31 24.27C261.997 16.8787 253.106 11.1747 243.279 7.56913C233.906 3.99231 223.238 1.59873 207.581 0.840011C191.932 0.144518 186.961 0 147 0ZM147 26.0133C186.245 26.0133 190.931 26.2029 206.441 26.8533C220.748 27.5126 228.54 29.861 233.713 31.8482C240.109 34.1688 245.897 37.8624 250.657 42.6599C255.529 47.3191 259.273 52.9961 261.61 59.2705C263.632 64.3557 266.021 72.0152 266.691 86.0786C267.353 101.325 267.546 105.941 267.546 144.509C267.546 183.077 267.353 187.693 266.636 202.939C265.864 217.003 263.475 224.662 261.463 229.748C258.679 236.531 255.573 241.273 250.446 246.403C245.67 251.171 239.885 254.847 233.502 257.17C228.393 259.157 220.491 261.505 206.129 262.165C190.536 262.815 185.942 263.005 146.596 263.005C107.25 263.005 102.665 262.815 87.0533 262.111C72.7465 261.352 64.8535 259.003 59.6803 257.025C52.6969 254.289 47.9096 251.236 42.7824 246.196C37.6091 241.11 34.3196 236.269 31.7835 229.54C29.7253 224.518 27.373 216.75 26.6103 202.632C26.5795 201.741 26.5496 200.886 26.5207 200.058C26.0582 186.815 25.8385 180.523 25.8385 144.292C25.8385 108.147 26.0574 101.803 26.5181 88.4534C26.5478 87.5919 26.5786 86.7012 26.6103 85.7715C27.373 71.6539 29.7253 63.9041 31.7835 58.864C34.3196 51.9904 37.6183 47.2935 42.7824 42.2083C47.9004 37.1773 52.6969 33.9256 59.6803 31.3785C64.8535 29.4004 72.5536 27.052 86.9154 26.3475C87.3099 26.3335 87.6974 26.3198 88.0786 26.3063C102.763 25.7865 108.097 25.5978 146.394 25.5978L147 26.0133ZM147 70.3351C137.089 70.3316 127.274 72.2479 118.116 75.9747C108.958 79.7015 100.638 85.1656 93.6292 92.0549C86.6207 98.9441 81.062 107.123 77.2708 116.125C73.4795 125.127 71.53 134.775 71.5336 144.518C71.53 154.261 73.4795 163.909 77.2708 172.911C81.062 181.913 86.6207 190.092 93.6292 196.981C100.638 203.87 108.958 209.335 118.116 213.061C127.274 216.788 137.089 218.705 147 218.701C156.911 218.705 166.726 216.788 175.884 213.061C185.042 209.335 193.362 203.87 200.371 196.981C207.379 190.092 212.938 181.913 216.729 172.911C220.52 163.909 222.47 154.261 222.466 144.518C222.47 134.775 220.52 125.127 216.729 116.125C212.938 107.123 207.379 98.9441 200.371 92.0549C193.362 85.1656 185.042 79.7015 175.884 75.9747C166.726 72.2479 156.911 70.3316 147 70.3351ZM147 192.688C119.912 192.688 97.9969 171.146 97.9969 144.518C97.9969 117.891 119.912 96.3484 147 96.3484C174.088 96.3484 196.003 117.891 196.003 144.518C196.003 171.146 174.088 192.688 147 192.688ZM243.15 67.3725C243.145 71.976 241.281 76.3893 237.968 79.6428C234.655 82.8962 230.163 84.7237 225.48 84.7237C223.165 84.7237 220.872 84.2754 218.732 83.4043C216.593 82.5332 214.649 81.2565 213.012 79.647C211.374 78.0374 210.076 76.1266 209.189 74.0237C208.303 71.9207 207.847 69.6668 207.847 67.3906C207.847 65.1144 208.303 62.8604 209.189 60.7575C210.076 58.6545 211.374 56.7437 213.012 55.1342C214.649 53.5247 216.593 52.2479 218.732 51.3769C220.872 50.5058 223.165 50.0574 225.48 50.0574C235.193 50.0574 243.15 57.8253 243.15 67.3725Z" fill="#C9C9C9"/>
<path d="M147 0C107.039 0 102.058 0.18968 86.4192 0.840011C70.7158 1.59873 60.0938 3.99231 50.7213 7.56913C40.9121 11.2094 32.0285 16.9088 24.6899 24.27C17.1804 31.467 11.3792 40.2043 7.70009 49.8587C4.06138 59.0718 1.62639 69.5132 0.854544 84.9495C0.147018 100.332 0 105.218 0 144.5C0 183.782 0.192962 188.677 0.854544 204.05C1.62639 219.442 4.06138 229.928 7.70009 239.141C11.4033 248.784 17.2013 257.516 24.6899 264.73C32.0114 272.112 40.8999 277.814 50.7213 281.431C60.0938 284.963 70.7618 287.401 86.4192 288.16C102.068 288.855 107.039 289 147 289C186.961 289 191.942 288.81 207.581 288.16C223.238 287.401 233.906 284.953 243.279 281.431C253.088 277.791 261.971 272.091 269.31 264.73C276.829 257.541 282.632 248.801 286.3 239.141C289.893 229.928 292.374 219.442 293.145 204.05C293.853 188.668 294 183.782 294 144.5C294 105.218 293.807 100.323 293.145 84.9495C292.374 69.5583 289.883 59.0176 286.3 49.8587C282.597 40.2163 276.799 31.4838 269.31 24.27C261.997 16.8787 253.106 11.1747 243.279 7.56913C233.906 3.99231 223.238 1.59873 207.581 0.840011C191.932 0.144518 186.961 0 147 0ZM147 26.0133C186.245 26.0133 190.931 26.2029 206.441 26.8533C220.748 27.5126 228.54 29.861 233.713 31.8482C240.109 34.1688 245.897 37.8624 250.657 42.6599C255.529 47.3191 259.273 52.9961 261.61 59.2705C263.632 64.3557 266.021 72.0152 266.691 86.0786C267.353 101.325 267.546 105.941 267.546 144.509C267.546 183.077 267.353 187.693 266.636 202.939C265.864 217.003 263.475 224.662 261.463 229.748C258.679 236.531 255.573 241.273 250.446 246.403C245.67 251.171 239.885 254.847 233.502 257.17C228.393 259.157 220.491 261.505 206.129 262.165C190.536 262.815 185.942 263.005 146.596 263.005C107.25 263.005 102.665 262.815 87.0533 262.111C72.7465 261.352 64.8535 259.003 59.6803 257.025C52.6969 254.289 47.9096 251.236 42.7824 246.196C37.6091 241.11 34.3196 236.269 31.7835 229.54C29.7253 224.518 27.373 216.75 26.6103 202.632C26.5795 201.741 26.5496 200.886 26.5207 200.058C26.0582 186.815 25.8385 180.523 25.8385 144.292C25.8385 108.147 26.0574 101.803 26.5181 88.4534C26.5478 87.5919 26.5786 86.7012 26.6103 85.7715C27.373 71.6539 29.7253 63.9041 31.7835 58.864C34.3196 51.9904 37.6183 47.2935 42.7824 42.2083C47.9004 37.1773 52.6969 33.9256 59.6803 31.3785C64.8535 29.4004 72.5536 27.052 86.9154 26.3475C87.3099 26.3335 87.6974 26.3198 88.0786 26.3063C102.763 25.7865 108.097 25.5978 146.394 25.5978L147 26.0133ZM147 70.3351C137.089 70.3316 127.274 72.2479 118.116 75.9747C108.958 79.7015 100.638 85.1656 93.6292 92.0549C86.6207 98.9441 81.062 107.123 77.2708 116.125C73.4795 125.127 71.53 134.775 71.5336 144.518C71.53 154.261 73.4795 163.909 77.2708 172.911C81.062 181.913 86.6207 190.092 93.6292 196.981C100.638 203.87 108.958 209.335 118.116 213.061C127.274 216.788 137.089 218.705 147 218.701C156.911 218.705 166.726 216.788 175.884 213.061C185.042 209.335 193.362 203.87 200.371 196.981C207.379 190.092 212.938 181.913 216.729 172.911C220.52 163.909 222.47 154.261 222.466 144.518C222.47 134.775 220.52 125.127 216.729 116.125C212.938 107.123 207.379 98.9441 200.371 92.0549C193.362 85.1656 185.042 79.7015 175.884 75.9747C166.726 72.2479 156.911 70.3316 147 70.3351ZM147 192.688C119.912 192.688 97.9969 171.146 97.9969 144.518C97.9969 117.891 119.912 96.3484 147 96.3484C174.088 96.3484 196.003 117.891 196.003 144.518C196.003 171.146 174.088 192.688 147 192.688ZM243.15 67.3725C243.145 71.976 241.281 76.3893 237.968 79.6428C234.655 82.8962 230.163 84.7237 225.48 84.7237C223.165 84.7237 220.872 84.2754 218.732 83.4043C216.593 82.5332 214.649 81.2565 213.012 79.647C211.374 78.0374 210.076 76.1266 209.189 74.0237C208.303 71.9207 207.847 69.6668 207.847 67.3906C207.847 65.1144 208.303 62.8604 209.189 60.7575C210.076 58.6545 211.374 56.7437 213.012 55.1342C214.649 53.5247 216.593 52.2479 218.732 51.3769C220.872 50.5058 223.165 50.0574 225.48 50.0574C235.193 50.0574 243.15 57.8253 243.15 67.3725Z" stroke="#C9C9C9"/>
</svg>
